<svg version="1.1" id="Layer_1" xmlns="http://www.w3.org/2000/svg" xmlns:xlink="http://www.w3.org/1999/xlink" x="0px" y="0px"
	 width="100%" viewBox="0 0 643 105" enable-background="new 0 0 643 105" xml:space="preserve">
<path fill="#000000" opacity="1.000000" stroke="none" 
	d="
M644.000000,89.000000 
	C644.000000,94.662292 644.000000,100.324585 644.000000,105.993439 
	C460.979095,106.000000 277.958221,106.000000 94.063919,105.859940 
	C93.586823,102.417328 94.893456,98.915192 94.220810,95.846977 
	C91.408104,83.017143 88.166611,70.271950 84.672882,57.608685 
	C83.974197,55.076260 81.948105,52.115452 79.710114,50.988556 
	C76.352509,49.297901 73.979912,52.311832 71.973160,54.866001 
	C63.477428,65.679253 54.847916,76.390305 46.516506,87.328529 
	C42.355515,92.791458 35.580811,97.406075 39.000000,106.000000 
	C32.978848,106.000000 26.957697,106.000000 20.511093,105.662315 
	C31.140060,91.049576 42.142113,76.733398 53.293106,62.534180 
	C55.522675,59.695145 57.446171,56.370743 55.204395,53.586147 
	C53.560616,51.544350 49.835396,50.359512 46.984241,50.254993 
	C36.530380,49.871807 26.048922,49.904972 15.588581,50.183842 
	C10.713046,50.313820 5.862094,51.365887 1.000000,52.000000 
	C1.000000,35.051094 1.000000,18.102192 1.000000,1.000000 
	C32.354073,1.000000 63.708378,1.000000 95.927048,1.165550 
	C90.633499,9.331247 90.766533,9.197091 95.642632,14.032411 
	C98.266464,16.634315 100.133392,16.181042 102.141716,13.606974 
	C104.070221,11.135219 108.608658,9.499750 104.653549,5.185031 
	C103.554810,3.986389 102.873062,2.405510 102.000000,0.999999 
	C282.666687,1.000000 463.333344,1.000000 644.000000,1.000000 
	C644.000000,28.100567 644.000000,55.081623 643.722351,82.596779 
	C642.475037,83.835541 641.505371,84.540215 640.306213,85.411659 
	C638.512451,80.601814 634.905518,80.564163 630.458313,81.849670 
	C631.362549,84.406204 632.180115,86.717545 633.294250,89.867378 
	C634.127319,87.177040 634.668335,85.429825 635.209351,83.682617 
	C635.558777,83.758362 635.908203,83.834099 636.257629,83.909843 
	C636.411255,85.584846 636.564880,87.259850 636.724487,89.000000 
	C639.430542,89.000000 641.715271,89.000000 644.000000,89.000000 
M477.825958,88.179718 
	C477.825958,88.179718 477.906281,88.176575 478.237793,88.814049 
	C480.849426,88.609154 483.461090,88.404259 486.197052,88.197128 
	C486.197052,88.197128 486.199829,88.072815 486.879578,87.731102 
	C487.176758,87.156036 487.730408,86.582367 487.733551,86.005714 
	C487.812286,71.577614 487.911011,57.148144 487.716309,42.722828 
	C487.700653,41.563129 485.664459,39.550499 484.446991,39.454189 
	C480.957001,39.178116 476.397919,37.641861 475.688385,43.634140 
	C475.665283,43.829277 474.581909,43.898865 473.699493,43.643322 
	C473.486053,43.399548 473.244690,43.187569 472.685242,42.545582 
	C472.129517,42.103462 471.573761,41.661339 470.359772,40.857132 
	C467.022369,39.930073 463.713043,38.329720 460.342834,38.189205 
	C443.160461,37.472816 434.557587,51.930199 435.423981,65.913849 
	C436.094727,76.739838 440.858917,85.561653 451.855835,89.235069 
	C461.507721,92.459190 470.887512,89.699814 475.516754,83.580856 
	C476.283936,85.087135 477.051086,86.593414 477.825958,88.179718 
M424.085327,88.070099 
	C424.085327,88.070099 424.072296,88.043648 424.710938,87.595970 
	C424.863098,77.345802 425.015259,67.095627 425.117401,56.024662 
	C425.696350,40.973186 407.360596,31.165657 392.436523,44.295494 
	C391.947845,37.693459 387.145538,39.877354 383.746338,40.080387 
	C379.628448,40.326344 381.050629,44.034569 381.026276,46.385811 
	C380.895569,59.023808 381.072784,71.665359 380.899445,84.302330 
	C380.843597,88.370003 382.265900,89.987900 386.385345,89.967766 
	C390.317810,89.948540 392.205994,88.738068 392.089417,84.499550 
	C391.883698,77.021477 391.523041,69.482849 392.254028,62.070843 
	C392.626404,58.295158 394.353241,53.684898 397.093170,51.405994 
	C399.439514,49.454437 404.420959,49.197388 407.664734,50.146584 
	C412.439667,51.543835 413.810791,56.405281 413.930908,61.091743 
	C414.152496,69.733887 414.095947,78.383148 414.284576,87.771301 
	C417.434174,91.281815 420.724945,90.547684 424.085327,88.070099 
M625.008057,87.868156 
	C625.312134,86.270134 625.875854,84.672913 625.880798,83.073975 
	C625.941467,63.423401 625.768005,43.770596 626.022705,24.123137 
	C626.090271,18.908625 623.754700,18.159967 619.381592,18.095928 
	C614.669678,18.026928 612.939087,19.573402 612.991821,24.427662 
	C613.203613,43.909592 613.039062,63.395393 613.145203,82.879044 
	C613.155212,84.719826 614.085876,86.555588 615.107178,88.935158 
	C618.204590,88.746613 621.301941,88.558060 625.008057,87.868156 
M500.050232,19.950195 
	C500.033447,41.059677 500.000732,62.169182 500.031128,83.278595 
	C500.033478,84.901115 500.480469,86.523003 501.274323,88.690643 
	C509.066162,91.832741 511.899384,90.085327 511.902252,82.107033 
	C511.909332,62.612499 511.957336,43.117615 511.828094,23.623943 
	C511.814178,21.523544 510.781494,17.644932 510.156372,17.631567 
	C506.818542,17.560205 503.460052,18.455576 500.050232,19.950195 
M142.748611,63.955387 
	C146.075089,63.944923 149.401611,63.944519 152.728012,63.922279 
	C167.631256,63.822632 177.181229,54.430534 176.077866,38.796055 
	C175.269348,27.339575 167.412521,19.097527 155.931549,18.880297 
	C148.948410,18.748167 141.957443,18.989443 134.976227,18.814148 
	C131.391968,18.724148 129.916931,19.912621 129.946152,23.665976 
	C130.110596,44.786945 130.101578,65.909271 130.284607,87.775269 
	C132.584564,91.590263 136.233414,89.982544 139.039337,89.259781 
	C140.338791,88.925056 141.584061,85.771469 141.677872,83.838760 
	C141.998459,77.234406 141.797150,70.604713 142.748611,63.955387 
M602.544189,88.223595 
	C602.445984,87.093018 602.579773,85.880859 602.215210,84.843933 
	C595.050049,64.466820 587.800354,44.119400 580.641968,23.739906 
	C579.455872,20.363155 577.672852,18.464321 573.741516,18.804335 
	C569.751526,19.149416 565.686951,17.853848 563.760864,23.524672 
	C556.758484,44.141640 549.374084,64.629822 542.009277,85.121849 
	C540.835876,88.386986 542.265381,89.348824 545.014526,89.808029 
	C551.265381,90.852142 553.715454,89.524788 555.383423,83.034538 
	C556.767395,77.649239 559.458740,75.247711 565.223999,75.839409 
	C569.998718,76.329437 574.892822,76.270630 579.680725,75.849335 
	C584.760376,75.402359 587.086670,77.359673 588.458069,82.228554 
	C590.763611,90.413521 593.822571,91.651672 602.544189,88.223595 
M189.573578,83.966232 
	C199.456100,91.829910 213.821228,92.768204 223.569550,86.225945 
	C225.589828,84.870094 227.737732,83.575813 225.942947,80.721817 
	C224.372192,78.224075 222.459518,75.851799 219.126129,78.072235 
	C214.447113,81.189041 209.345871,80.641953 204.255997,80.048058 
	C198.544281,79.381592 194.879288,75.725250 193.641068,69.422211 
	C195.091293,69.258896 196.505936,68.969086 197.922104,68.961525 
	C206.417435,68.916161 214.914215,68.852913 223.408218,68.966492 
	C228.027756,69.028259 229.954849,67.046127 230.056839,62.377831 
	C230.431137,45.244961 214.559402,33.610878 198.385590,39.329041 
	C180.006836,45.826744 175.187790,68.643707 189.573578,83.966232 
M357.203888,41.182510 
	C343.053314,34.444977 328.670502,38.894211 321.954742,52.086578 
	C315.496521,64.772995 320.033325,80.609741 332.020966,87.225021 
	C343.716278,93.678986 359.974609,90.114616 366.110748,79.751350 
	C374.589050,65.432533 371.216888,49.802608 357.203888,41.182510 
M299.482361,49.805855 
	C299.929474,50.028095 300.436829,50.176563 300.813873,50.484573 
	C303.209808,52.442017 305.148407,53.804287 307.710266,50.168621 
	C310.036652,46.867077 309.858826,44.414879 306.488556,42.899178 
	C302.070251,40.912144 297.401489,38.648621 292.706573,38.298397 
	C284.950012,37.719788 278.872955,42.670444 277.301941,49.183517 
	C275.640472,56.071438 278.707062,61.733150 286.327576,65.559555 
	C289.742645,67.274353 293.511261,68.409370 296.639740,70.518867 
	C298.229675,71.590942 299.831940,74.482430 299.465363,76.108948 
	C299.087921,77.783623 296.185883,80.203445 294.629547,80.037460 
	C290.844971,79.633842 286.956970,78.379211 283.575775,76.588921 
	C280.866638,75.154465 279.205322,74.886749 277.215851,77.355316 
	C275.166779,79.897865 275.206848,81.888794 277.655365,84.229874 
	C283.266266,89.594597 289.949158,91.342972 297.368530,90.222885 
	C305.868195,88.939720 309.890015,85.200302 311.212280,78.083282 
	C312.453400,71.403015 310.147980,66.191910 303.821686,62.715485 
	C300.051178,60.643490 295.708374,59.574589 292.052521,57.348915 
	C290.295776,56.279415 288.312408,53.303658 288.670959,51.688118 
	C289.019623,50.116951 292.103546,48.754555 294.230591,48.123600 
	C295.535645,47.736485 297.299713,48.896740 299.482361,49.805855 
M61.376129,26.642292 
	C61.492493,28.123613 61.457993,29.635433 61.750267,31.081192 
	C63.367767,39.082256 70.873283,45.425129 78.355240,45.383644 
	C90.066330,45.318703 95.202415,38.846973 96.866997,30.312517 
	C98.546036,21.703840 93.620575,13.557110 85.433731,10.558105 
	C74.271370,6.469112 64.243652,12.822853 61.376129,26.642292 
M22.493219,9.114647 
	C12.907271,13.010147 9.443399,18.441423 9.989355,28.720428 
	C10.490748,38.160423 19.980059,45.627789 29.894957,44.384617 
	C39.519821,43.177811 47.247726,33.100300 45.434353,24.120594 
	C43.148552,12.801468 35.629612,7.658633 22.493219,9.114647 
M249.699615,89.349258 
	C250.419586,87.477211 251.697113,85.624390 251.762482,83.729759 
	C252.037903,75.745506 251.705994,67.737526 252.071228,59.759975 
	C252.395996,52.666138 256.874084,48.534744 263.207123,49.100838 
	C265.792297,49.331921 267.999847,49.761112 267.970825,46.163002 
	C267.944580,42.907978 268.821777,38.495708 264.085510,38.440807 
	C260.154663,38.395245 256.201935,40.240971 251.996719,41.315861 
	C250.633255,37.677841 246.371521,39.075550 242.864777,39.514931 
	C238.936722,40.007103 240.206558,43.582600 240.183105,45.996857 
	C240.066620,57.985905 240.124939,69.976692 240.130920,81.966873 
	C240.134842,89.814270 240.697952,90.299782 249.699615,89.349258 
z"/>
<path fill="#2E2E30" opacity="1.000000" stroke="none" 
	d="
M1.000000,52.463181 
	C5.862094,51.365887 10.713046,50.313820 15.588581,50.183842 
	C26.048922,49.904972 36.530380,49.871807 46.984241,50.254993 
	C49.835396,50.359512 53.560616,51.544350 55.204395,53.586147 
	C57.446171,56.370743 55.522675,59.695145 53.293106,62.534180 
	C42.142113,76.733398 31.140060,91.049576 20.042820,105.662315 
	C18.285641,106.000000 16.571283,106.000000 14.409765,105.639404 
	C12.659197,102.128357 10.995596,99.074249 10.122243,95.808784 
	C7.819818,87.200035 5.941388,78.478470 3.696638,69.853226 
	C3.245305,68.119003 1.921527,66.611847 1.000000,65.000000 
	C1.000000,60.975456 1.000000,56.950912 1.000000,52.463181 
M27.373098,78.849945 
	C31.631359,73.156357 35.889618,67.462761 40.736282,60.982426 
	C31.768940,60.982426 23.991732,60.870724 16.225494,61.112064 
	C15.154777,61.145336 13.100112,63.155903 13.255759,63.866920 
	C15.029033,71.967461 17.143414,79.993324 19.319286,88.646095 
	C22.333731,85.003952 24.642473,82.214462 27.373098,78.849945 
z"/>
<path fill="#6555F8" opacity="1.000000" stroke="none" 
	d="
M39.468658,106.000000 
	C35.580811,97.406075 42.355515,92.791458 46.516506,87.328529 
	C54.847916,76.390305 63.477428,65.679253 71.973160,54.866001 
	C73.979912,52.311832 76.352509,49.297901 79.710114,50.988556 
	C81.948105,52.115452 83.974197,55.076260 84.672882,57.608685 
	C88.166611,70.271950 91.408104,83.017143 94.220810,95.846977 
	C94.893456,98.915192 93.586823,102.417328 93.595261,105.859940 
	C75.979103,106.000000 57.958210,106.000000 39.468658,106.000000 
M83.257126,95.381027 
	C80.968338,86.215973 78.679558,77.050926 76.186172,67.066612 
	C72.482422,71.640488 69.464600,75.161377 66.677673,78.856438 
	C62.324871,84.627625 58.128494,90.516808 53.898254,96.915176 
	C54.403473,97.258362 54.906170,97.896355 55.414284,97.900681 
	C63.521622,97.969948 71.630821,98.026108 79.736153,97.885948 
	C80.850502,97.866669 81.946411,96.780685 83.257126,95.381027 
z"/>
<path fill="#000000" opacity="1.000000" stroke="none" 
	d="
M1.000000,65.468658 
	C1.921527,66.611847 3.245305,68.119003 3.696638,69.853226 
	C5.941388,78.478470 7.819818,87.200035 10.122243,95.808784 
	C10.995596,99.074249 12.659197,102.128357 13.981302,105.639404 
	C9.702087,106.000000 5.404176,106.000000 1.000000,106.000000 
	C1.000000,92.645927 1.000000,79.291626 1.000000,65.468658 
z"/>
<path fill="#6556F3" opacity="1.000000" stroke="none" 
	d="
M101.571533,0.999999 
	C102.873062,2.405510 103.554810,3.986389 104.653549,5.185031 
	C108.608658,9.499750 104.070221,11.135219 102.141716,13.606974 
	C100.133392,16.181042 98.266464,16.634315 95.642632,14.032411 
	C90.766533,9.197091 90.633499,9.331247 96.395706,1.165550 
	C97.714355,1.000000 99.428719,1.000000 101.571533,0.999999 
z"/>
<path fill="#2B2B2D" opacity="1.000000" stroke="none" 
	d="
M644.000000,88.571533 
	C641.715271,89.000000 639.430542,89.000000 636.724487,89.000000 
	C636.564880,87.259850 636.411255,85.584846 636.257629,83.909843 
	C635.908203,83.834099 635.558777,83.758362 635.209351,83.682617 
	C634.668335,85.429825 634.127319,87.177040 633.294250,89.867378 
	C632.180115,86.717545 631.362549,84.406204 630.458313,81.849670 
	C634.905518,80.564163 638.512451,80.601814 640.306213,85.411659 
	C641.505371,84.540215 642.475037,83.835541 643.722351,83.065437 
	C644.000000,84.714355 644.000000,86.428719 644.000000,88.571533 
z"/>
<path fill="#2E2E2F" opacity="1.000000" stroke="none" 
	d="
M602.339355,88.565338 
	C593.822571,91.651672 590.763611,90.413521 588.458069,82.228554 
	C587.086670,77.359673 584.760376,75.402359 579.680725,75.849335 
	C574.892822,76.270630 569.998718,76.329437 565.223999,75.839409 
	C559.458740,75.247711 556.767395,77.649239 555.383423,83.034538 
	C553.715454,89.524788 551.265381,90.852142 545.014526,89.808029 
	C542.265381,89.348824 540.835876,88.386986 542.009277,85.121849 
	C549.374084,64.629822 556.758484,44.141640 563.760864,23.524672 
	C565.686951,17.853848 569.751526,19.149416 573.741516,18.804335 
	C577.672852,18.464321 579.455872,20.363155 580.641968,23.739906 
	C587.800354,44.119400 595.050049,64.466820 602.215210,84.843933 
	C602.579773,85.880859 602.445984,87.093018 602.339355,88.565338 
M570.568237,39.366978 
	C567.740601,47.608292 564.912964,55.849606 561.922241,64.566116 
	C569.051514,64.566116 575.217102,64.566116 582.435669,64.566116 
	C578.971680,54.558926 575.774536,45.322605 572.233704,35.093365 
	C571.462952,36.956821 571.107544,37.815952 570.568237,39.366978 
z"/>
<path fill="#2E2E2F" opacity="1.000000" stroke="none" 
	d="
M130.151718,87.031128 
	C130.101578,65.909271 130.110596,44.786945 129.946152,23.665976 
	C129.916931,19.912621 131.391968,18.724148 134.976227,18.814148 
	C141.957443,18.989443 148.948410,18.748167 155.931549,18.880297 
	C167.412521,19.097527 175.269348,27.339575 176.077866,38.796055 
	C177.181229,54.430534 167.631256,63.822632 152.728012,63.922279 
	C149.401611,63.944519 146.075089,63.944923 141.968231,64.184143 
	C140.791107,66.131554 140.115555,67.839966 140.052017,69.570862 
	C139.887329,74.056580 139.838058,78.558960 140.034790,83.041870 
	C140.214722,87.141464 138.243179,88.436790 134.546219,87.916237 
	C133.069122,87.708252 131.615845,87.331207 130.151718,87.031128 
M162.074142,33.613354 
	C156.424683,27.122412 149.077972,30.980722 141.855560,29.670176 
	C141.855560,35.172466 141.853989,39.957279 141.855927,44.742088 
	C141.859451,53.480728 141.978348,53.590618 150.867050,53.038540 
	C151.530701,52.997314 152.198624,52.960014 152.853546,52.853218 
	C163.226547,51.161720 166.934067,44.053375 162.074142,33.613354 
z"/>
<path fill="#2E2E30" opacity="1.000000" stroke="none" 
	d="
M472.975433,43.007393 
	C473.244690,43.187569 473.486053,43.399548 473.993683,44.130142 
	C475.438232,44.496933 477.480499,44.629814 477.597565,44.216793 
	C478.518646,40.968700 481.109558,40.198643 483.345306,41.370300 
	C484.791138,42.128002 485.854065,44.935833 485.892273,46.848877 
	C486.166718,60.586754 486.134644,74.330757 486.199829,88.072815 
	C486.199829,88.072815 486.197052,88.197128 485.684265,88.150398 
	C482.749756,88.127968 480.328033,88.152267 477.906281,88.176575 
	C477.906281,88.176575 477.825958,88.179718 477.864166,87.735840 
	C477.856628,86.017891 478.027405,84.671852 477.641449,83.510880 
	C477.515381,83.131638 475.939911,83.234245 475.027283,83.116486 
	C470.887512,89.699814 461.507721,92.459190 451.855835,89.235069 
	C440.858917,85.561653 436.094727,76.739838 435.423981,65.913849 
	C434.557587,51.930199 443.160461,37.472816 460.342834,38.189205 
	C463.713043,38.329720 467.022369,39.930073 470.799225,41.289795 
	C471.817596,42.150772 472.396515,42.579082 472.975433,43.007393 
M459.164062,49.465759 
	C450.425232,51.359703 445.607147,58.152878 447.073029,66.513397 
	C448.728546,75.955505 454.934174,80.383865 464.652924,79.058540 
	C471.559570,78.116692 476.595459,71.038582 475.938538,63.196217 
	C475.166962,53.985031 469.158020,48.729176 459.164062,49.465759 
z"/>
<path fill="#2E2E30" opacity="1.000000" stroke="none" 
	d="
M189.319336,83.712784 
	C175.187790,68.643707 180.006836,45.826744 198.385590,39.329041 
	C214.559402,33.610878 230.431137,45.244961 230.056839,62.377831 
	C229.954849,67.046127 228.027756,69.028259 223.408218,68.966492 
	C214.914215,68.852913 206.417435,68.916161 197.922104,68.961525 
	C196.505936,68.969086 195.091293,69.258896 193.641068,69.422211 
	C194.879288,75.725250 198.544281,79.381592 204.255997,80.048058 
	C209.345871,80.641953 214.447113,81.189041 219.126129,78.072235 
	C222.459518,75.851799 224.372192,78.224075 225.942947,80.721817 
	C227.737732,83.575813 225.589828,84.870094 223.569550,86.225945 
	C213.821228,92.768204 199.456100,91.829910 189.319336,83.712784 
M218.581039,55.956844 
	C215.610992,50.318459 209.545074,47.258865 203.896149,48.549938 
	C197.094955,50.104366 193.825287,53.533630 193.686813,60.001247 
	C201.601059,60.001247 209.500626,60.063255 217.393204,59.857075 
	C217.901413,59.843800 218.355515,57.760025 218.581039,55.956844 
z"/>
<path fill="#2E2E30" opacity="1.000000" stroke="none" 
	d="
M357.533997,41.355354 
	C371.216888,49.802608 374.589050,65.432533 366.110748,79.751350 
	C359.974609,90.114616 343.716278,93.678986 332.020966,87.225021 
	C320.033325,80.609741 315.496521,64.772995 321.954742,52.086578 
	C328.670502,38.894211 343.053314,34.444977 357.533997,41.355354 
M358.670746,60.313698 
	C356.320404,51.230995 349.866608,49.009808 343.218628,49.138573 
	C336.904419,49.260872 331.534332,55.189674 330.392670,62.346478 
	C329.406891,68.526131 333.325867,75.967682 339.150269,78.134682 
	C351.823944,82.849983 361.124786,72.731628 358.670746,60.313698 
z"/>
<path fill="#2E2E30" opacity="1.000000" stroke="none" 
	d="
M414.155304,87.029449 
	C414.095947,78.383148 414.152496,69.733887 413.930908,61.091743 
	C413.810791,56.405281 412.439667,51.543835 407.664734,50.146584 
	C404.420959,49.197388 399.439514,49.454437 397.093170,51.405994 
	C394.353241,53.684898 392.626404,58.295158 392.254028,62.070843 
	C391.523041,69.482849 391.883698,77.021477 392.089417,84.499550 
	C392.205994,88.738068 390.317810,89.948540 386.385345,89.967766 
	C382.265900,89.987900 380.843597,88.370003 380.899445,84.302330 
	C381.072784,71.665359 380.895569,59.023808 381.026276,46.385811 
	C381.050629,44.034569 379.628448,40.326344 383.746338,40.080387 
	C387.145538,39.877354 391.947845,37.693459 392.436523,44.295494 
	C407.360596,31.165657 425.696350,40.973186 424.909546,56.800335 
	C424.491882,67.731888 424.282074,77.887764 424.072296,88.043648 
	C424.072296,88.043648 424.085327,88.070099 423.642090,88.061874 
	C420.184357,87.712250 417.169830,87.370850 414.155304,87.029449 
z"/>
<path fill="#2E2E30" opacity="1.000000" stroke="none" 
	d="
M299.169983,49.584000 
	C297.299713,48.896740 295.535645,47.736485 294.230591,48.123600 
	C292.103546,48.754555 289.019623,50.116951 288.670959,51.688118 
	C288.312408,53.303658 290.295776,56.279415 292.052521,57.348915 
	C295.708374,59.574589 300.051178,60.643490 303.821686,62.715485 
	C310.147980,66.191910 312.453400,71.403015 311.212280,78.083282 
	C309.890015,85.200302 305.868195,88.939720 297.368530,90.222885 
	C289.949158,91.342972 283.266266,89.594597 277.655365,84.229874 
	C275.206848,81.888794 275.166779,79.897865 277.215851,77.355316 
	C279.205322,74.886749 280.866638,75.154465 283.575775,76.588921 
	C286.956970,78.379211 290.844971,79.633842 294.629547,80.037460 
	C296.185883,80.203445 299.087921,77.783623 299.465363,76.108948 
	C299.831940,74.482430 298.229675,71.590942 296.639740,70.518867 
	C293.511261,68.409370 289.742645,67.274353 286.327576,65.559555 
	C278.707062,61.733150 275.640472,56.071438 277.301941,49.183517 
	C278.872955,42.670444 284.950012,37.719788 292.706573,38.298397 
	C297.401489,38.648621 302.070251,40.912144 306.488556,42.899178 
	C309.858826,44.414879 310.036652,46.867077 307.710266,50.168621 
	C305.148407,53.804287 303.209808,52.442017 300.813873,50.484573 
	C300.436829,50.176563 299.929474,50.028095 299.169983,49.584000 
z"/>
<path fill="#6556F7" opacity="1.000000" stroke="none" 
	d="
M61.364426,26.229271 
	C64.243652,12.822853 74.271370,6.469112 85.433731,10.558105 
	C93.620575,13.557110 98.546036,21.703840 96.866997,30.312517 
	C95.202415,38.846973 90.066330,45.318703 78.355240,45.383644 
	C70.873283,45.425129 63.367767,39.082256 61.750267,31.081192 
	C61.457993,29.635433 61.492493,28.123613 61.364426,26.229271 
M84.614952,32.093204 
	C87.482536,27.808294 87.164352,24.656502 83.677040,21.772036 
	C80.177544,18.877495 76.902199,19.599606 73.933441,22.463343 
	C70.868011,25.420341 71.512398,28.877272 73.562378,31.975746 
	C75.758415,35.294983 79.953499,35.398327 84.614952,32.093204 
z"/>
<path fill="#2E2E30" opacity="1.000000" stroke="none" 
	d="
M22.843369,9.011436 
	C35.629612,7.658633 43.148552,12.801468 45.434353,24.120594 
	C47.247726,33.100300 39.519821,43.177811 29.894957,44.384617 
	C19.980059,45.627789 10.490748,38.160423 9.989355,28.720428 
	C9.443399,18.441423 12.907271,13.010147 22.843369,9.011436 
M33.271549,30.792200 
	C33.640053,30.049726 34.088112,29.335491 34.363392,28.559927 
	C35.609787,25.048370 34.291019,22.338203 31.451595,20.328497 
	C28.389805,18.161402 25.477865,18.913546 22.812799,21.227419 
	C20.210579,23.486723 19.605473,26.155193 21.219608,29.258879 
	C22.916367,32.521423 25.693626,33.620533 29.149427,32.960373 
	C30.405716,32.720383 31.556639,31.928818 33.271549,30.792200 
z"/>
<path fill="#2D2D2F" opacity="1.000000" stroke="none" 
	d="
M249.301971,89.488846 
	C240.697952,90.299782 240.134842,89.814270 240.130920,81.966873 
	C240.124939,69.976692 240.066620,57.985905 240.183105,45.996857 
	C240.206558,43.582600 238.936722,40.007103 242.864777,39.514931 
	C246.371521,39.075550 250.633255,37.677841 251.996719,41.315861 
	C256.201935,40.240971 260.154663,38.395245 264.085510,38.440807 
	C268.821777,38.495708 267.944580,42.907978 267.970825,46.163002 
	C267.999847,49.761112 265.792297,49.331921 263.207123,49.100838 
	C256.874084,48.534744 252.395996,52.666138 252.071228,59.759975 
	C251.705994,67.737526 252.037903,75.745506 251.762482,83.729759 
	C251.697113,85.624390 250.419586,87.477211 249.301971,89.488846 
z"/>
<path fill="#2E2E30" opacity="1.000000" stroke="none" 
	d="
M500.720764,88.145180 
	C500.480469,86.523003 500.033478,84.901115 500.031128,83.278595 
	C500.000732,62.169182 500.033447,41.059677 500.523071,19.476261 
	C510.010071,18.973837 510.011414,18.973837 510.011963,27.910091 
	C510.012939,44.730442 509.962463,61.550995 510.029388,78.371078 
	C510.075653,89.991951 509.764526,87.612801 500.720764,88.145180 
z"/>
<path fill="#2B2B2D" opacity="1.000000" stroke="none" 
	d="
M614.589111,88.393677 
	C614.085876,86.555588 613.155212,84.719826 613.145203,82.879044 
	C613.039062,63.395393 613.203613,43.909592 612.991821,24.427662 
	C612.939087,19.573402 614.669678,18.026928 619.381592,18.095928 
	C623.754700,18.159967 626.090271,18.908625 626.022705,24.123137 
	C625.768005,43.770596 625.941467,63.423401 625.880798,83.073975 
	C625.875854,84.672913 625.312134,86.270134 624.602661,88.023697 
	C624.197327,88.179237 623.992371,87.992119 623.996582,87.524261 
	C624.002930,78.409668 624.007019,69.762932 624.006836,61.116188 
	C624.006592,49.143784 623.945007,37.170933 624.038025,25.199266 
	C624.064453,21.796766 623.176025,19.903694 619.286072,19.949856 
	C615.073425,19.999842 614.976990,22.580875 614.982056,25.625433 
	C615.016296,46.410770 615.010986,67.196175 614.909180,88.082596 
	C614.799927,88.183624 614.589111,88.393677 614.589111,88.393677 
z"/>
<path fill="#29292B" opacity="1.000000" stroke="none" 
	d="
M500.997559,88.417908 
	C509.764526,87.612801 510.075653,89.991951 510.029388,78.371078 
	C509.962463,61.550995 510.012939,44.730442 510.011963,27.910091 
	C510.011414,18.973837 510.010071,18.973837 500.552307,19.009470 
	C503.460052,18.455576 506.818542,17.560205 510.156372,17.631567 
	C510.781494,17.644932 511.814178,21.523544 511.828094,23.623943 
	C511.957336,43.117615 511.909332,62.612499 511.902252,82.107033 
	C511.899384,90.085327 509.066162,91.832741 500.997559,88.417908 
z"/>
<path fill="#2B2B2D" opacity="1.000000" stroke="none" 
	d="
M486.539703,87.901962 
	C486.134644,74.330757 486.166718,60.586754 485.892273,46.848877 
	C485.854065,44.935833 484.791138,42.128002 483.345306,41.370300 
	C481.109558,40.198643 478.518646,40.968700 477.597565,44.216793 
	C477.480499,44.629814 475.438232,44.496933 474.140320,44.321968 
	C474.581909,43.898865 475.665283,43.829277 475.688385,43.634140 
	C476.397919,37.641861 480.957001,39.178116 484.446991,39.454189 
	C485.664459,39.550499 487.700653,41.563129 487.716309,42.722828 
	C487.911011,57.148144 487.812286,71.577614 487.733551,86.005714 
	C487.730408,86.582367 487.176758,87.156036 486.539703,87.901962 
z"/>
<path fill="#333335" opacity="1.000000" stroke="none" 
	d="
M130.218170,87.403198 
	C131.615845,87.331207 133.069122,87.708252 134.546219,87.916237 
	C138.243179,88.436790 140.214722,87.141464 140.034790,83.041870 
	C139.838058,78.558960 139.887329,74.056580 140.052017,69.570862 
	C140.115555,67.839966 140.791107,66.131554 141.491394,64.198792 
	C141.797150,70.604713 141.998459,77.234406 141.677872,83.838760 
	C141.584061,85.771469 140.338791,88.925056 139.039337,89.259781 
	C136.233414,89.982544 132.584564,91.590263 130.218170,87.403198 
z"/>
<path fill="#333335" opacity="1.000000" stroke="none" 
	d="
M424.391602,87.819809 
	C424.282074,77.887764 424.491882,67.731888 424.934540,57.210732 
	C425.015259,67.095627 424.863098,77.345802 424.391602,87.819809 
z"/>
<path fill="#333335" opacity="1.000000" stroke="none" 
	d="
M414.219940,87.400375 
	C417.169830,87.370850 420.184357,87.712250 423.635834,88.075218 
	C420.724945,90.547684 417.434174,91.281815 414.219940,87.400375 
z"/>
<path fill="#2B2B2D" opacity="1.000000" stroke="none" 
	d="
M624.298340,88.274368 
	C621.301941,88.558060 618.204590,88.746613 614.848145,88.664413 
	C614.589111,88.393677 614.799927,88.183624 615.357056,88.089447 
	C618.606873,87.994217 621.299622,87.993164 623.992371,87.992119 
	C623.992371,87.992119 624.197327,88.179237 624.298340,88.274368 
z"/>
<path fill="#2B2B2D" opacity="1.000000" stroke="none" 
	d="
M478.072021,88.495316 
	C480.328033,88.152267 482.749756,88.127968 485.622131,88.151520 
	C483.461090,88.404259 480.849426,88.609154 478.072021,88.495316 
z"/>
<path fill="#2B2B2D" opacity="1.000000" stroke="none" 
	d="
M475.272034,83.348671 
	C475.939911,83.234245 477.515381,83.131638 477.641449,83.510880 
	C478.027405,84.671852 477.856628,86.017891 477.860321,87.695824 
	C477.051086,86.593414 476.283936,85.087135 475.272034,83.348671 
z"/>
<path fill="#2B2B2D" opacity="1.000000" stroke="none" 
	d="
M472.830322,42.776489 
	C472.396515,42.579082 471.817596,42.150772 471.128357,41.470840 
	C471.573761,41.661339 472.129517,42.103462 472.830322,42.776489 
z"/>
<path fill="#000000" opacity="1.000000" stroke="none" 
	d="
M27.162157,79.137459 
	C24.642473,82.214462 22.333731,85.003952 19.319286,88.646095 
	C17.143414,79.993324 15.029033,71.967461 13.255759,63.866920 
	C13.100112,63.155903 15.154777,61.145336 16.225494,61.112064 
	C23.991732,60.870724 31.768940,60.982426 40.736282,60.982426 
	C35.889618,67.462761 31.631359,73.156357 27.162157,79.137459 
z"/>
<path fill="#010101" opacity="1.000000" stroke="none" 
	d="
M53.865845,96.356003 
	C58.128494,90.516808 62.324871,84.627625 66.677673,78.856438 
	C69.464600,75.161377 72.482422,71.640488 76.186172,67.066612 
	C78.679558,77.050926 80.968338,86.215973 82.682434,95.767860 
	C72.693779,96.221794 63.279812,96.288902 53.865845,96.356003 
z"/>
<path fill="#6556F7" opacity="1.000000" stroke="none" 
	d="
M53.882050,96.635590 
	C63.279812,96.288902 72.693779,96.221794 82.579300,96.171631 
	C81.946411,96.780685 80.850502,97.866669 79.736153,97.885948 
	C71.630821,98.026108 63.521622,97.969948 55.414284,97.900681 
	C54.906170,97.896355 54.403473,97.258362 53.882050,96.635590 
z"/>
<path fill="#000000" opacity="1.000000" stroke="none" 
	d="
M570.660217,39.021030 
	C571.107544,37.815952 571.462952,36.956821 572.233704,35.093365 
	C575.774536,45.322605 578.971680,54.558926 582.435669,64.566116 
	C575.217102,64.566116 569.051514,64.566116 561.922241,64.566116 
	C564.912964,55.849606 567.740601,47.608292 570.660217,39.021030 
z"/>
<path fill="#000000" opacity="1.000000" stroke="none" 
	d="
M162.321304,33.928482 
	C166.934067,44.053375 163.226547,51.161720 152.853546,52.853218 
	C152.198624,52.960014 151.530701,52.997314 150.867050,53.038540 
	C141.978348,53.590618 141.859451,53.480728 141.855927,44.742088 
	C141.853989,39.957279 141.855560,35.172466 141.855560,29.670176 
	C149.077972,30.980722 156.424683,27.122412 162.321304,33.928482 
z"/>
<path fill="#000000" opacity="1.000000" stroke="none" 
	d="
M459.552002,49.334198 
	C469.158020,48.729176 475.166962,53.985031 475.938538,63.196217 
	C476.595459,71.038582 471.559570,78.116692 464.652924,79.058540 
	C454.934174,80.383865 448.728546,75.955505 447.073029,66.513397 
	C445.607147,58.152878 450.425232,51.359703 459.552002,49.334198 
z"/>
<path fill="#000000" opacity="1.000000" stroke="none" 
	d="
M218.707916,56.298130 
	C218.355515,57.760025 217.901413,59.843800 217.393204,59.857075 
	C209.500626,60.063255 201.601059,60.001247 193.686813,60.001247 
	C193.825287,53.533630 197.094955,50.104366 203.896149,48.549938 
	C209.545074,47.258865 215.610992,50.318459 218.707916,56.298130 
z"/>
<path fill="#000000" opacity="1.000000" stroke="none" 
	d="
M358.776978,60.720768 
	C361.124786,72.731628 351.823944,82.849983 339.150269,78.134682 
	C333.325867,75.967682 329.406891,68.526131 330.392670,62.346478 
	C331.534332,55.189674 336.904419,49.260872 343.218628,49.138573 
	C349.866608,49.009808 356.320404,51.230995 358.776978,60.720768 
z"/>
<path fill="#030307" opacity="1.000000" stroke="none" 
	d="
M84.346008,32.358307 
	C79.953499,35.398327 75.758415,35.294983 73.562378,31.975746 
	C71.512398,28.877272 70.868011,25.420341 73.933441,22.463343 
	C76.902199,19.599606 80.177544,18.877495 83.677040,21.772036 
	C87.164352,24.656502 87.482536,27.808294 84.346008,32.358307 
z"/>
<path fill="#010101" opacity="1.000000" stroke="none" 
	d="
M33.013592,31.090557 
	C31.556639,31.928818 30.405716,32.720383 29.149427,32.960373 
	C25.693626,33.620533 22.916367,32.521423 21.219608,29.258879 
	C19.605473,26.155193 20.210579,23.486723 22.812799,21.227419 
	C25.477865,18.913546 28.389805,18.161402 31.451595,20.328497 
	C34.291019,22.338203 35.609787,25.048370 34.363392,28.559927 
	C34.088112,29.335491 33.640053,30.049726 33.013592,31.090557 
z"/>
<path fill="#2E2E30" opacity="1.000000" stroke="none" 
	d="
M623.996582,87.524261 
	C621.299622,87.993164 618.606873,87.994217 615.466309,87.988411 
	C615.010986,67.196175 615.016296,46.410770 614.982056,25.625433 
	C614.976990,22.580875 615.073425,19.999842 619.286072,19.949856 
	C623.176025,19.903694 624.064453,21.796766 624.038025,25.199266 
	C623.945007,37.170933 624.006592,49.143784 624.006836,61.116188 
	C624.007019,69.762932 624.002930,78.409668 623.996582,87.524261 
z"/>
</svg>