<?xml version="1.0" encoding="UTF-8"?><svg id="Layer_1" xmlns="http://www.w3.org/2000/svg" viewBox="0 0 1284.95 209.6"><defs><style>.cls-1{fill:#6656ff;}.cls-2{fill:#2e2e30;}</style></defs><rect class="cls-1" x="184.22" y="3.14" width="22.52" height="22.52" rx="3.68" ry="3.68" transform="translate(46.73 142.04) rotate(-44.85)"/><path class="cls-1" d="M156.44,87.46c.24,0,.47,0,.71,0,9.36-.18,18.09-4,24.57-10.75s9.96-15.62,9.77-24.98c-.37-18.94-16.09-34.35-35.02-34.35-.23,0-.47,0-.71,0-19.32.38-34.73,16.41-34.35,35.73.37,18.94,16.09,34.35,35.02,34.35ZM140.92,52.72c-.08-4.15,1.46-8.08,4.33-11.07,2.87-2.99,6.74-4.68,10.87-4.76h.34c8.39,0,15.34,6.83,15.51,15.22.08,4.15-1.46,8.08-4.33,11.07-2.87,2.99-6.74,4.68-10.87,4.76h-.34c-8.39,0-15.35-6.83-15.51-15.22Z"/><path class="cls-2" d="M53.03,85.34c19.32,0,35.05-15.72,35.05-35.04S72.35,15.25,53.03,15.25,17.99,30.97,17.99,50.3s15.72,35.04,35.04,35.04ZM37.5,50.3c0-8.56,6.97-15.53,15.53-15.53s15.53,6.97,15.53,15.53-6.97,15.53-15.53,15.53-15.53-6.97-15.53-15.53Z"/><path class="cls-2" d="M108.43,105.98c-1.84-3.76-5.58-6.09-9.77-6.09H10.88c-3.37,0-6.49,1.52-8.56,4.17-2.08,2.65-2.8,6.04-1.99,9.31l21.2,85.62c1.2,4.87,5.56,8.26,10.6,8.26,3.35,0,6.46-1.53,8.54-4.2l66.59-85.62c2.57-3.3,3.02-7.69,1.18-11.45ZM81.83,118.99l-45.83,58.93-14.59-58.93h60.42Z"/><path class="cls-1" d="M165.45,107.87c-1.24-4.96-5.69-8.42-10.82-8.42-3.4,0-6.57,1.55-8.69,4.25l-69.04,87.93c-2.65,3.37-3.13,7.86-1.25,11.72,1.87,3.86,5.7,6.25,9.99,6.25h91.03c3.44,0,6.64-1.56,8.75-4.27,2.12-2.71,2.86-6.19,2.02-9.53l-21.98-87.93ZM165.89,190.09h-62.97l47.76-60.83,15.21,60.83Z"/><path class="cls-2" d="M258.47,172.1V38.1c0-1.8,1-3,2.8-3h40.4c31.8,0,47.8,18.4,47.8,44.6s-16,44.6-47.8,44.6h-20.8v47.8c0,1.8-1.2,3-3,3h-16.6c-1.8,0-2.8-1.2-2.8-3ZM300.67,104.3c14.8,0,27.2-5.8,27.2-24.6s-12.4-24.6-27.2-24.6h-19.8v49.2h19.8Z"/><path class="cls-2" d="M448.27,134.1h-66c2.4,15.8,14,26,33.6,26,9.6,0,17.4-2.4,25.2-7.6,1.2-.8,2.4-.6,3.2.6l5.6,7.6c1.2,1.6.8,2.8-.8,4.4-8.6,8.4-21.2,12.4-35,12.4-32,0-52.8-22.6-52.8-51.8s20-51,49.8-51,46.4,22.2,46.4,46.6c0,8.6-1.8,12.8-9.2,12.8ZM382.07,118.5h56.4c-1.4-16.2-12-25.6-27.4-25.6s-27,9.2-29,25.6Z"/><path class="cls-2" d="M533.27,80.7v12.4c0,2.4-1.4,2.8-3.8,2.2-2.4-.6-4.6-1-7.2-1-15.4,0-21.4,12.4-21.4,25v52.8c0,1.8-1,3-2.8,3h-16c-1.8,0-2.8-1.2-2.8-3v-92c0-1.8,1-3,2.8-3h15.2c1.8,0,2.8.8,2.8,3.2l.8,12c3.4-10,9.8-17.6,21.6-17.6,4.4,0,7.4,1,9,2.2,1.4,1,1.8,2,1.8,3.8Z"/><path class="cls-2" d="M550.47,161.9c-1.2-1.4-1.2-3.4.2-5.4l5.2-7.2c1.4-2,3.2-1.8,4.8-.4,7.2,6.2,14.2,10.4,23.2,10.4s15-3.8,15-11.6c0-6.8-4.6-10.2-12.6-13.6l-12-4.8c-12.4-5-21.8-12.8-21.8-26.6,0-17.6,15-28,32.4-28,12,0,23.2,5,30.8,14.4,1.2,1.4,1,3-.2,4.2l-6.2,7.4c-1.6,1.8-3,1.6-4.8,0-6.2-5.8-12.2-8.6-18.6-8.6-7.6,0-12.8,3.8-12.8,10.4s5.2,10,12.8,13l11.8,4.8c12.6,5,22.6,13,22.6,28-.2,19.2-16.6,29.2-35.4,29.2-16,0-27.6-7.4-34.4-15.6Z"/><path class="cls-2" d="M636.87,126.1c0-29,21.6-51.4,50.8-51.4s50.6,22.4,50.6,51.4-21.6,51.4-50.6,51.4-50.8-22.4-50.8-51.4ZM717.47,126.1c0-18.8-13-31.4-29.8-31.4s-30,12.6-30,31.4,13,31.4,30,31.4,29.8-12.6,29.8-31.4Z"/><path class="cls-2" d="M848.07,114.9v57.2c0,1.8-1.2,3-3,3h-15.8c-1.8,0-2.8-1.2-2.8-3v-53.2c0-15.4-7.6-24.2-21.4-24.2s-23.4,8.8-23.4,24.2v53.2c0,1.8-1,3-2.8,3h-16c-1.8,0-2.8-1.2-2.8-3v-92c0-1.8,1-3,2.8-3h15.2c1.8,0,2.8.8,2.8,3.2l.8,12c5.6-10,15.2-17.6,30.6-17.6,21,0,35.8,14.4,35.8,40.2Z"/><path class="cls-2" d="M972.06,80.1v92c0,1.8-1,3-2.8,3h-14.6c-1.8,0-2.8-1.2-2.8-3l-.4-13.4c-6.8,11.6-18.4,18.8-34.6,18.8-28,0-47.2-22.2-47.2-51.4s19.2-51.4,47.2-51.4c16.2,0,27.8,7.2,34.6,18.8l.4-13.4c0-1.8,1-3,2.8-3h14.6c1.8,0,2.8,1.2,2.8,3ZM950.67,126.3c0-19-12.2-31.8-29.6-31.8s-30.4,12.8-30.4,31.6,12.8,31.6,30.4,31.6,29.6-12.6,29.6-31.4Z"/><path class="cls-2" d="M998.86,172.1V35.1c0-1.8,1-3,2.8-3h16c1.8,0,2.8,1.2,2.8,3v137c0,1.8-1,3-2.8,3h-16c-1.8,0-2.8-1.2-2.8-3Z"/><path class="cls-2" d="M1200.26,175.1h-17.4c-1.6,0-2.8-.6-3.4-2.4l-8.2-24.4h-58l-8.4,24.4c-.6,1.8-1.6,2.4-3.4,2.4h-17.2c-2.2,0-3.2-1.4-2.4-3.4l47.6-134.2c.6-1.6,2-2.4,3.6-2.4h18.2c1.6,0,3.2.8,3.8,2.4l47.6,134.2c.8,2-.2,3.4-2.4,3.4ZM1164.46,128.3l-22.2-65.4-22.2,65.4h44.4Z"/><path class="cls-2" d="M1225.66,172.1V38.1c0-1.8,1-3,2.8-3h16.6c1.8,0,3,1.2,3,3v134c0,1.8-1.2,3-3,3h-16.6c-1.8,0-2.8-1.2-2.8-3Z"/><path class="cls-2" d="M1259.11,161.89h10.9v1.5h-4.6v11.71h-1.7v-11.71h-4.6v-1.5Z"/><path class="cls-2" d="M1278.01,175.1l-4.18-10.07v10.07h-1.61v-13.21h1.91l4.48,10.84,4.45-10.84h1.89v13.21h-1.61v-10.07l-4.13,10.07h-1.2Z"/></svg>
