<svg id="Layer_1" data-name="Layer 1" xmlns="http://www.w3.org/2000/svg" viewBox="0 0 1265.03 197.56"><defs><style>.cls-1{fill:#6656ff;}.cls-2{fill:#06001c;}</style></defs><path class="cls-1" d="M155.79,29.08a16.69,16.69,0,0,1,16.59,16.29A16.6,16.6,0,0,1,156.1,62.3h-.34A16.69,16.69,0,0,1,139.17,46a16.6,16.6,0,0,1,16.28-16.93h.34m0-16.11h-.66a32.72,32.72,0,0,0,.63,65.43h.66A32.72,32.72,0,0,0,155.79,13Z"/><rect class="cls-1" x="181.83" y="2.25" width="16.11" height="16.11" rx="2.63" transform="translate(47.99 136.9) rotate(-44.85)"/><path class="cls-2" d="M54.89,27A16.61,16.61,0,1,1,38.28,43.63,16.63,16.63,0,0,1,54.89,27m0-16.11A32.72,32.72,0,1,0,87.61,43.63,32.72,32.72,0,0,0,54.89,10.91Z"/><path class="cls-2" d="M83.39,109.3,33.78,173.09,18,109.3h65.4M97.17,93.19H9.38a9.38,9.38,0,0,0-9.1,11.63l21.2,85.62a9.31,9.31,0,0,0,9.14,7.12A9.21,9.21,0,0,0,38,193.94l66.6-85.62a9.38,9.38,0,0,0-7.4-15.13Z"/><path class="cls-1" d="M150.85,117.4l16,64H100.55l50.3-64M154,93a9.23,9.23,0,0,0-7.33,3.59L79.32,182.4a9.38,9.38,0,0,0,7.37,15.16h88.8a9.37,9.37,0,0,0,9.09-11.64l-21.44-85.78A9.33,9.33,0,0,0,154,93Z"/><path class="cls-2" d="M269.33,186.25a2.44,2.44,0,0,1-2.7-2.71v-126a2.44,2.44,0,0,1,2.7-2.71h11.22c1.74,0,2.51,1,2.51,2.71l.38,14.5c6.77-12,18.76-19.53,35-19.53,27.26,0,46.2,21.46,46.2,49.68,0,28.42-18.94,49.68-46.2,49.68-15.65,0-27.45-7-34.21-18.17v49.87a2.45,2.45,0,0,1-2.71,2.71Zm78.29-84.09c0-19.91-13.53-33.63-32.28-33.63-18.56,0-31.51,13.72-31.51,33.83s12.95,33.44,31.51,33.44C334.09,135.8,347.62,122.27,347.62,102.16Z"/><path class="cls-2" d="M382.42,101.78c0-27.84,19.52-49.3,47.94-49.3,28.22,0,44.65,21.46,44.65,44.85,0,7.73-1.55,11.21-7.92,11.21H399.43c2.12,17,14.3,29,35.18,29a42.06,42.06,0,0,0,25.71-8.12c1.16-.77,2.32-.77,3.09.19l4.26,6c1.35,1.55.77,2.71-.78,4.06-8.31,8.12-20.49,12.18-33.83,12.18C402.14,151.84,382.42,129.61,382.42,101.78Zm77.13-6.19c-1-17-12.18-28.22-29.19-28.22s-29,10.63-30.93,28.22Z"/><path class="cls-2" d="M500.34,149.52a2.44,2.44,0,0,1-2.71-2.7V57.51a2.45,2.45,0,0,1,2.71-2.71h11.4c1.93,0,2.71.78,2.71,2.9L515,68.91c3.48-9.28,9.86-16.43,21.45-16.43,4.06,0,7,.78,8.7,1.94a3.75,3.75,0,0,1,1.55,3.47v9.48c0,2.13-1.35,2.51-3.48,1.93a23.25,23.25,0,0,0-7-1C520.44,68.33,515,81.87,515,93.27v53.55c0,1.74-.77,2.7-2.51,2.7Z"/><path class="cls-2" d="M564.9,137.15c-1.35-1.55-1.16-3.09,0-5l3.87-5.41c1.35-1.74,3.09-1.74,4.64-.19,6.37,6.19,13.33,10.44,22.8,10.44,9.87,0,16.63-4.45,16.63-13.15,0-7.73-5.22-11.4-13.53-14.88l-11.4-4.83c-11.61-4.84-21.08-12-21.08-25.33,0-16.43,13.92-26.29,30.16-26.29A36.35,36.35,0,0,1,625.79,66a3,3,0,0,1-.19,4L621,75.49c-1.55,1.93-2.9,1.74-4.64,0-6-6-12-8.7-18.56-8.7-7.92,0-14.3,4.06-14.3,11.6,0,7.92,5.8,11.21,14.3,14.5l10.44,4.25c12.18,5,22,12.37,21.84,27.06,0,18-15.46,27.64-33,27.64C581.52,151.84,570.89,144.49,564.9,137.15Z"/><path class="cls-2" d="M648,102.16c0-28.22,21.07-49.68,48.91-49.68s48.71,21.46,48.71,49.68-20.88,49.68-48.71,49.68S648,130.38,648,102.16Zm80.8,0c0-19.91-13.72-33.63-31.89-33.63-18.37,0-31.9,13.72-31.9,33.63s13.53,33.44,31.9,33.44C715.1,135.6,728.82,122.07,728.82,102.16Z"/><path class="cls-2" d="M771,149.52a2.44,2.44,0,0,1-2.71-2.7V57.51A2.45,2.45,0,0,1,771,54.8h11.4c1.93,0,2.71.78,2.71,2.9l.58,12c5.41-9.67,15.46-17.21,30.73-17.21,20.3,0,34.41,13.73,34.41,38.67v55.67a2.44,2.44,0,0,1-2.71,2.7H835.92c-1.74,0-2.52-1-2.52-2.7v-53c0-15.85-8.12-25.32-22.61-25.32S785.66,78,785.66,93.85v53c0,1.74-.77,2.7-2.51,2.7Z"/><path class="cls-2" d="M873.42,102.16c0-28.22,18.94-49.68,46.2-49.68,16.23,0,28.22,7.54,35,19.53l.39-14.5c0-1.74.78-2.71,2.51-2.71h11.22a2.44,2.44,0,0,1,2.7,2.71v89.31a2.44,2.44,0,0,1-2.7,2.7H957.5c-1.73,0-2.51-1-2.51-2.7l-.39-14.11c-7,11.78-18.75,19.13-35,19.13C892.36,151.84,873.42,130.58,873.42,102.16Zm80.8.2c0-20.11-13-33.83-31.51-33.83-18.75,0-32.28,13.72-32.28,33.63,0,20.11,13.53,33.64,32.28,33.64C941.27,135.8,954.22,122.46,954.22,102.36Z"/><path class="cls-2" d="M1001.58,149.52a2.44,2.44,0,0,1-2.71-2.7V14a2.45,2.45,0,0,1,2.71-2.71h12.18a2.44,2.44,0,0,1,2.7,2.71v132.8a2.44,2.44,0,0,1-2.7,2.7Z"/><path class="cls-1" d="M1038.69,140.44a11.6,11.6,0,0,1,23.2,0,11.6,11.6,0,0,1-23.2,0Z"/><path class="cls-2" d="M1079.29,102.16c0-28.22,18.94-49.68,46.2-49.68,16.23,0,28.22,7.54,35,19.53l.38-14.5c0-1.74.78-2.71,2.51-2.71h11.22a2.44,2.44,0,0,1,2.7,2.71v89.31a2.44,2.44,0,0,1-2.7,2.7h-11.22c-1.73,0-2.51-1-2.51-2.7l-.38-14.11c-7,11.78-18.76,19.13-35,19.13C1098.23,151.84,1079.29,130.58,1079.29,102.16Zm80.8.2c0-20.11-12.95-33.83-31.51-33.83-18.75,0-32.28,13.72-32.28,33.63,0,20.11,13.53,33.64,32.28,33.64C1147.14,135.8,1160.09,122.46,1160.09,102.36Z"/><path class="cls-2" d="M1207.45,149.52c-1.74,0-2.51-1-2.51-2.7V57.51c0-1.74.77-2.71,2.51-2.71h12.18a2.45,2.45,0,0,1,2.71,2.71v89.31a2.44,2.44,0,0,1-2.71,2.7Z"/><rect class="cls-1" x="1202.9" y="14.84" width="21.48" height="21.48" rx="3" transform="translate(368.7 897.15) rotate(-47.1)"/><path class="cls-2" d="M1242.39,139.58H1252v1.32h-4v10.27h-1.49V140.9h-4Z"/><path class="cls-2" d="M1259,151.17l-3.66-8.83v8.83h-1.42V139.58h1.68l3.93,9.51,3.91-9.51H1265v11.59h-1.42v-8.83l-3.62,8.83Z"/></svg>